G75*
%MOIN*%
%OFA0B0*%
%FSLAX24Y24*%
%IPPOS*%
%LPD*%
%AMOC8*
5,1,8,0,0,1.08239X$1,22.5*
%
%ADD10C,0.0000*%
%ADD11C,0.0906*%
%ADD12C,0.0080*%
%ADD13R,0.0473X0.0434*%
%ADD14R,0.0434X0.0473*%
%ADD15R,0.0512X0.0316*%
%ADD16R,0.0512X0.0434*%
%ADD17R,0.0788X0.0552*%
%ADD18R,0.0355X0.0434*%
%ADD19R,0.1142X0.0434*%
%ADD20R,0.0552X0.0788*%
%ADD21R,0.0316X0.1064*%
%ADD22R,0.0476X0.0476*%
%ADD23C,0.0476*%
%ADD24R,0.0434X0.0591*%
%ADD25C,0.0476*%
%ADD26R,0.0540X0.0237*%
%ADD27R,0.0631X0.0237*%
%ADD28R,0.0237X0.0631*%
%ADD29R,0.0119X0.0335*%
%ADD30R,0.0335X0.0119*%
%ADD31R,0.0646X0.0709*%
%ADD32C,0.0397*%
D10*
X002071Y001060D02*
X002071Y012871D01*
X017819Y012871D01*
X017819Y001060D01*
X002071Y001060D01*
X002544Y001965D02*
X002546Y002006D01*
X002552Y002047D01*
X002562Y002087D01*
X002575Y002126D01*
X002592Y002163D01*
X002613Y002199D01*
X002637Y002233D01*
X002664Y002264D01*
X002693Y002292D01*
X002726Y002318D01*
X002760Y002340D01*
X002797Y002359D01*
X002835Y002374D01*
X002875Y002386D01*
X002915Y002394D01*
X002956Y002398D01*
X002998Y002398D01*
X003039Y002394D01*
X003079Y002386D01*
X003119Y002374D01*
X003157Y002359D01*
X003193Y002340D01*
X003228Y002318D01*
X003261Y002292D01*
X003290Y002264D01*
X003317Y002233D01*
X003341Y002199D01*
X003362Y002163D01*
X003379Y002126D01*
X003392Y002087D01*
X003402Y002047D01*
X003408Y002006D01*
X003410Y001965D01*
X003408Y001924D01*
X003402Y001883D01*
X003392Y001843D01*
X003379Y001804D01*
X003362Y001767D01*
X003341Y001731D01*
X003317Y001697D01*
X003290Y001666D01*
X003261Y001638D01*
X003228Y001612D01*
X003194Y001590D01*
X003157Y001571D01*
X003119Y001556D01*
X003079Y001544D01*
X003039Y001536D01*
X002998Y001532D01*
X002956Y001532D01*
X002915Y001536D01*
X002875Y001544D01*
X002835Y001556D01*
X002797Y001571D01*
X002761Y001590D01*
X002726Y001612D01*
X002693Y001638D01*
X002664Y001666D01*
X002637Y001697D01*
X002613Y001731D01*
X002592Y001767D01*
X002575Y001804D01*
X002562Y001843D01*
X002552Y001883D01*
X002546Y001924D01*
X002544Y001965D01*
X002544Y011965D02*
X002546Y012006D01*
X002552Y012047D01*
X002562Y012087D01*
X002575Y012126D01*
X002592Y012163D01*
X002613Y012199D01*
X002637Y012233D01*
X002664Y012264D01*
X002693Y012292D01*
X002726Y012318D01*
X002760Y012340D01*
X002797Y012359D01*
X002835Y012374D01*
X002875Y012386D01*
X002915Y012394D01*
X002956Y012398D01*
X002998Y012398D01*
X003039Y012394D01*
X003079Y012386D01*
X003119Y012374D01*
X003157Y012359D01*
X003193Y012340D01*
X003228Y012318D01*
X003261Y012292D01*
X003290Y012264D01*
X003317Y012233D01*
X003341Y012199D01*
X003362Y012163D01*
X003379Y012126D01*
X003392Y012087D01*
X003402Y012047D01*
X003408Y012006D01*
X003410Y011965D01*
X003408Y011924D01*
X003402Y011883D01*
X003392Y011843D01*
X003379Y011804D01*
X003362Y011767D01*
X003341Y011731D01*
X003317Y011697D01*
X003290Y011666D01*
X003261Y011638D01*
X003228Y011612D01*
X003194Y011590D01*
X003157Y011571D01*
X003119Y011556D01*
X003079Y011544D01*
X003039Y011536D01*
X002998Y011532D01*
X002956Y011532D01*
X002915Y011536D01*
X002875Y011544D01*
X002835Y011556D01*
X002797Y011571D01*
X002761Y011590D01*
X002726Y011612D01*
X002693Y011638D01*
X002664Y011666D01*
X002637Y011697D01*
X002613Y011731D01*
X002592Y011767D01*
X002575Y011804D01*
X002562Y011843D01*
X002552Y011883D01*
X002546Y011924D01*
X002544Y011965D01*
X016481Y011965D02*
X016483Y012006D01*
X016489Y012047D01*
X016499Y012087D01*
X016512Y012126D01*
X016529Y012163D01*
X016550Y012199D01*
X016574Y012233D01*
X016601Y012264D01*
X016630Y012292D01*
X016663Y012318D01*
X016697Y012340D01*
X016734Y012359D01*
X016772Y012374D01*
X016812Y012386D01*
X016852Y012394D01*
X016893Y012398D01*
X016935Y012398D01*
X016976Y012394D01*
X017016Y012386D01*
X017056Y012374D01*
X017094Y012359D01*
X017130Y012340D01*
X017165Y012318D01*
X017198Y012292D01*
X017227Y012264D01*
X017254Y012233D01*
X017278Y012199D01*
X017299Y012163D01*
X017316Y012126D01*
X017329Y012087D01*
X017339Y012047D01*
X017345Y012006D01*
X017347Y011965D01*
X017345Y011924D01*
X017339Y011883D01*
X017329Y011843D01*
X017316Y011804D01*
X017299Y011767D01*
X017278Y011731D01*
X017254Y011697D01*
X017227Y011666D01*
X017198Y011638D01*
X017165Y011612D01*
X017131Y011590D01*
X017094Y011571D01*
X017056Y011556D01*
X017016Y011544D01*
X016976Y011536D01*
X016935Y011532D01*
X016893Y011532D01*
X016852Y011536D01*
X016812Y011544D01*
X016772Y011556D01*
X016734Y011571D01*
X016698Y011590D01*
X016663Y011612D01*
X016630Y011638D01*
X016601Y011666D01*
X016574Y011697D01*
X016550Y011731D01*
X016529Y011767D01*
X016512Y011804D01*
X016499Y011843D01*
X016489Y011883D01*
X016483Y011924D01*
X016481Y011965D01*
X016481Y001965D02*
X016483Y002006D01*
X016489Y002047D01*
X016499Y002087D01*
X016512Y002126D01*
X016529Y002163D01*
X016550Y002199D01*
X016574Y002233D01*
X016601Y002264D01*
X016630Y002292D01*
X016663Y002318D01*
X016697Y002340D01*
X016734Y002359D01*
X016772Y002374D01*
X016812Y002386D01*
X016852Y002394D01*
X016893Y002398D01*
X016935Y002398D01*
X016976Y002394D01*
X017016Y002386D01*
X017056Y002374D01*
X017094Y002359D01*
X017130Y002340D01*
X017165Y002318D01*
X017198Y002292D01*
X017227Y002264D01*
X017254Y002233D01*
X017278Y002199D01*
X017299Y002163D01*
X017316Y002126D01*
X017329Y002087D01*
X017339Y002047D01*
X017345Y002006D01*
X017347Y001965D01*
X017345Y001924D01*
X017339Y001883D01*
X017329Y001843D01*
X017316Y001804D01*
X017299Y001767D01*
X017278Y001731D01*
X017254Y001697D01*
X017227Y001666D01*
X017198Y001638D01*
X017165Y001612D01*
X017131Y001590D01*
X017094Y001571D01*
X017056Y001556D01*
X017016Y001544D01*
X016976Y001536D01*
X016935Y001532D01*
X016893Y001532D01*
X016852Y001536D01*
X016812Y001544D01*
X016772Y001556D01*
X016734Y001571D01*
X016698Y001590D01*
X016663Y001612D01*
X016630Y001638D01*
X016601Y001666D01*
X016574Y001697D01*
X016550Y001731D01*
X016529Y001767D01*
X016512Y001804D01*
X016499Y001843D01*
X016489Y001883D01*
X016483Y001924D01*
X016481Y001965D01*
D11*
X016914Y001965D03*
X016914Y011965D03*
X002977Y011965D03*
X002977Y001965D03*
D12*
X003725Y005827D02*
X003668Y005841D01*
X003615Y005867D01*
X003569Y005904D01*
X003532Y005950D01*
X003506Y006003D01*
X003491Y006060D01*
X003489Y006119D01*
X003500Y006177D01*
X003522Y006231D01*
X003556Y006280D01*
X003599Y006320D01*
X003650Y006350D01*
X003706Y006369D01*
X003764Y006375D01*
X003818Y006370D01*
X003870Y006354D01*
X003917Y006328D01*
X003959Y006294D01*
X003993Y006252D01*
X004019Y006205D01*
X004034Y006153D01*
X004040Y006099D01*
X004033Y006041D01*
X004015Y005985D01*
X003985Y005934D01*
X003945Y005891D01*
X003896Y005857D01*
X003842Y005835D01*
X003784Y005824D01*
X003725Y005827D01*
X003653Y005848D02*
X003874Y005848D01*
X003978Y005927D02*
X003551Y005927D01*
X003505Y006005D02*
X004022Y006005D01*
X004038Y006084D02*
X003490Y006084D01*
X003497Y006162D02*
X004032Y006162D01*
X003999Y006241D02*
X003529Y006241D01*
X003598Y006319D02*
X003928Y006319D01*
D13*
X006126Y007635D03*
X005614Y008048D03*
X006126Y008304D03*
X005614Y008717D03*
X007563Y008245D03*
X007563Y007576D03*
X009748Y007654D03*
X010300Y007654D03*
X010300Y008324D03*
X009748Y008324D03*
X014591Y007261D03*
X014591Y006591D03*
X014591Y005883D03*
X014591Y005213D03*
D14*
X015201Y003619D03*
X015870Y003619D03*
X015870Y002910D03*
X015201Y002910D03*
X014406Y002123D03*
X013737Y002123D03*
X012130Y003934D03*
X011461Y003934D03*
X012406Y006887D03*
X012406Y007442D03*
X013075Y007442D03*
X013075Y006887D03*
X013075Y008147D03*
X013075Y008698D03*
X012406Y008698D03*
X012406Y008147D03*
X010319Y009603D03*
X010319Y010154D03*
X009650Y010154D03*
X009650Y009603D03*
X009177Y008225D03*
X008508Y008225D03*
X008508Y007635D03*
X009177Y007635D03*
X007563Y008737D03*
X006894Y008737D03*
X006225Y009839D03*
X005555Y009839D03*
X003075Y010036D03*
X002406Y010036D03*
X002406Y009328D03*
X002406Y008816D03*
X002406Y008304D03*
X003075Y008304D03*
X003075Y008816D03*
X003075Y009328D03*
X005910Y007158D03*
X006579Y007158D03*
X013351Y011690D03*
X014020Y011690D03*
D15*
X010937Y005233D03*
X010937Y004800D03*
X010937Y004367D03*
X010937Y003934D03*
X010937Y003501D03*
X010937Y003068D03*
X010937Y002635D03*
X010937Y002202D03*
X010937Y001828D03*
D16*
X009244Y001454D03*
X010937Y005843D03*
D17*
X004992Y006769D03*
D18*
X006803Y001454D03*
D19*
X005170Y001454D03*
D20*
X004197Y012103D03*
X006992Y012103D03*
X007662Y012103D03*
X009866Y012103D03*
D21*
X009059Y010666D03*
X008469Y010666D03*
X006185Y010666D03*
X005595Y010666D03*
X005004Y010666D03*
D22*
X002607Y007359D03*
X016914Y010645D03*
D23*
X016914Y010145D03*
X016914Y009645D03*
X016914Y009145D03*
X016914Y008645D03*
X016914Y008145D03*
X016914Y007645D03*
X016914Y007145D03*
X004607Y007359D03*
X004107Y007359D03*
X003607Y007359D03*
X003107Y007359D03*
D24*
X006855Y009328D03*
X007603Y009328D03*
X007229Y010194D03*
D25*
X011696Y009682D02*
X012132Y009682D01*
D26*
X004768Y009751D03*
X004768Y009259D03*
X004768Y008767D03*
X004768Y008274D03*
X003784Y008274D03*
X003784Y008767D03*
X003784Y009259D03*
X003784Y009751D03*
D27*
X015201Y007202D03*
X015201Y006887D03*
X015201Y006572D03*
X015201Y006257D03*
X015201Y005942D03*
X015201Y005627D03*
X016264Y005627D03*
X016264Y005942D03*
X016264Y006257D03*
X016264Y006572D03*
X016264Y006887D03*
X016264Y007202D03*
D28*
X015733Y007339D03*
X015733Y005489D03*
D29*
X014473Y003816D03*
X014315Y003816D03*
X014158Y003816D03*
X014000Y003816D03*
X013843Y003816D03*
X013685Y003816D03*
X013685Y002556D03*
X013843Y002556D03*
X014000Y002556D03*
X014158Y002556D03*
X014315Y002556D03*
X014473Y002556D03*
D30*
X014709Y002792D03*
X014709Y002950D03*
X014709Y003107D03*
X014709Y003265D03*
X014709Y003422D03*
X014709Y003580D03*
X013449Y003580D03*
X013449Y003422D03*
X013449Y003265D03*
X013449Y003107D03*
X013449Y002950D03*
X013449Y002792D03*
D31*
X014079Y003186D03*
D32*
X011008Y007771D02*
X011008Y008128D01*
X008882Y008716D02*
X008882Y009073D01*
M02*
