G75*
%MOIN*%
%OFA0B0*%
%FSLAX24Y24*%
%IPPOS*%
%LPD*%
%AMOC8*
5,1,8,0,0,1.08239X$1,22.5*
%
%ADD10C,0.0000*%
%ADD11R,0.0060X0.0010*%
%ADD12R,0.0120X0.0010*%
%ADD13R,0.0180X0.0010*%
%ADD14R,0.0300X0.0010*%
%ADD15R,0.0240X0.0010*%
%ADD16R,0.0360X0.0010*%
%ADD17C,0.0050*%
%ADD18R,0.0094X0.0016*%
%ADD19R,0.0189X0.0016*%
%ADD20R,0.0661X0.0016*%
%ADD21R,0.0283X0.0016*%
%ADD22R,0.0378X0.0016*%
%ADD23R,0.0567X0.0016*%
%ADD24R,0.0472X0.0016*%
%ADD25C,0.0040*%
%ADD26C,0.0080*%
%ADD27C,0.0060*%
%ADD28C,0.0120*%
%ADD29C,0.0039*%
D10*
X002071Y001060D02*
X002071Y012871D01*
X017819Y012871D01*
X017819Y001060D01*
X002071Y001060D01*
X002544Y001965D02*
X002546Y002006D01*
X002552Y002047D01*
X002562Y002087D01*
X002575Y002126D01*
X002592Y002163D01*
X002613Y002199D01*
X002637Y002233D01*
X002664Y002264D01*
X002693Y002292D01*
X002726Y002318D01*
X002760Y002340D01*
X002797Y002359D01*
X002835Y002374D01*
X002875Y002386D01*
X002915Y002394D01*
X002956Y002398D01*
X002998Y002398D01*
X003039Y002394D01*
X003079Y002386D01*
X003119Y002374D01*
X003157Y002359D01*
X003193Y002340D01*
X003228Y002318D01*
X003261Y002292D01*
X003290Y002264D01*
X003317Y002233D01*
X003341Y002199D01*
X003362Y002163D01*
X003379Y002126D01*
X003392Y002087D01*
X003402Y002047D01*
X003408Y002006D01*
X003410Y001965D01*
X003408Y001924D01*
X003402Y001883D01*
X003392Y001843D01*
X003379Y001804D01*
X003362Y001767D01*
X003341Y001731D01*
X003317Y001697D01*
X003290Y001666D01*
X003261Y001638D01*
X003228Y001612D01*
X003194Y001590D01*
X003157Y001571D01*
X003119Y001556D01*
X003079Y001544D01*
X003039Y001536D01*
X002998Y001532D01*
X002956Y001532D01*
X002915Y001536D01*
X002875Y001544D01*
X002835Y001556D01*
X002797Y001571D01*
X002761Y001590D01*
X002726Y001612D01*
X002693Y001638D01*
X002664Y001666D01*
X002637Y001697D01*
X002613Y001731D01*
X002592Y001767D01*
X002575Y001804D01*
X002562Y001843D01*
X002552Y001883D01*
X002546Y001924D01*
X002544Y001965D01*
X002544Y011965D02*
X002546Y012006D01*
X002552Y012047D01*
X002562Y012087D01*
X002575Y012126D01*
X002592Y012163D01*
X002613Y012199D01*
X002637Y012233D01*
X002664Y012264D01*
X002693Y012292D01*
X002726Y012318D01*
X002760Y012340D01*
X002797Y012359D01*
X002835Y012374D01*
X002875Y012386D01*
X002915Y012394D01*
X002956Y012398D01*
X002998Y012398D01*
X003039Y012394D01*
X003079Y012386D01*
X003119Y012374D01*
X003157Y012359D01*
X003193Y012340D01*
X003228Y012318D01*
X003261Y012292D01*
X003290Y012264D01*
X003317Y012233D01*
X003341Y012199D01*
X003362Y012163D01*
X003379Y012126D01*
X003392Y012087D01*
X003402Y012047D01*
X003408Y012006D01*
X003410Y011965D01*
X003408Y011924D01*
X003402Y011883D01*
X003392Y011843D01*
X003379Y011804D01*
X003362Y011767D01*
X003341Y011731D01*
X003317Y011697D01*
X003290Y011666D01*
X003261Y011638D01*
X003228Y011612D01*
X003194Y011590D01*
X003157Y011571D01*
X003119Y011556D01*
X003079Y011544D01*
X003039Y011536D01*
X002998Y011532D01*
X002956Y011532D01*
X002915Y011536D01*
X002875Y011544D01*
X002835Y011556D01*
X002797Y011571D01*
X002761Y011590D01*
X002726Y011612D01*
X002693Y011638D01*
X002664Y011666D01*
X002637Y011697D01*
X002613Y011731D01*
X002592Y011767D01*
X002575Y011804D01*
X002562Y011843D01*
X002552Y011883D01*
X002546Y011924D01*
X002544Y011965D01*
X016481Y011965D02*
X016483Y012006D01*
X016489Y012047D01*
X016499Y012087D01*
X016512Y012126D01*
X016529Y012163D01*
X016550Y012199D01*
X016574Y012233D01*
X016601Y012264D01*
X016630Y012292D01*
X016663Y012318D01*
X016697Y012340D01*
X016734Y012359D01*
X016772Y012374D01*
X016812Y012386D01*
X016852Y012394D01*
X016893Y012398D01*
X016935Y012398D01*
X016976Y012394D01*
X017016Y012386D01*
X017056Y012374D01*
X017094Y012359D01*
X017130Y012340D01*
X017165Y012318D01*
X017198Y012292D01*
X017227Y012264D01*
X017254Y012233D01*
X017278Y012199D01*
X017299Y012163D01*
X017316Y012126D01*
X017329Y012087D01*
X017339Y012047D01*
X017345Y012006D01*
X017347Y011965D01*
X017345Y011924D01*
X017339Y011883D01*
X017329Y011843D01*
X017316Y011804D01*
X017299Y011767D01*
X017278Y011731D01*
X017254Y011697D01*
X017227Y011666D01*
X017198Y011638D01*
X017165Y011612D01*
X017131Y011590D01*
X017094Y011571D01*
X017056Y011556D01*
X017016Y011544D01*
X016976Y011536D01*
X016935Y011532D01*
X016893Y011532D01*
X016852Y011536D01*
X016812Y011544D01*
X016772Y011556D01*
X016734Y011571D01*
X016698Y011590D01*
X016663Y011612D01*
X016630Y011638D01*
X016601Y011666D01*
X016574Y011697D01*
X016550Y011731D01*
X016529Y011767D01*
X016512Y011804D01*
X016499Y011843D01*
X016489Y011883D01*
X016483Y011924D01*
X016481Y011965D01*
X016481Y001965D02*
X016483Y002006D01*
X016489Y002047D01*
X016499Y002087D01*
X016512Y002126D01*
X016529Y002163D01*
X016550Y002199D01*
X016574Y002233D01*
X016601Y002264D01*
X016630Y002292D01*
X016663Y002318D01*
X016697Y002340D01*
X016734Y002359D01*
X016772Y002374D01*
X016812Y002386D01*
X016852Y002394D01*
X016893Y002398D01*
X016935Y002398D01*
X016976Y002394D01*
X017016Y002386D01*
X017056Y002374D01*
X017094Y002359D01*
X017130Y002340D01*
X017165Y002318D01*
X017198Y002292D01*
X017227Y002264D01*
X017254Y002233D01*
X017278Y002199D01*
X017299Y002163D01*
X017316Y002126D01*
X017329Y002087D01*
X017339Y002047D01*
X017345Y002006D01*
X017347Y001965D01*
X017345Y001924D01*
X017339Y001883D01*
X017329Y001843D01*
X017316Y001804D01*
X017299Y001767D01*
X017278Y001731D01*
X017254Y001697D01*
X017227Y001666D01*
X017198Y001638D01*
X017165Y001612D01*
X017131Y001590D01*
X017094Y001571D01*
X017056Y001556D01*
X017016Y001544D01*
X016976Y001536D01*
X016935Y001532D01*
X016893Y001532D01*
X016852Y001536D01*
X016812Y001544D01*
X016772Y001556D01*
X016734Y001571D01*
X016698Y001590D01*
X016663Y001612D01*
X016630Y001638D01*
X016601Y001666D01*
X016574Y001697D01*
X016550Y001731D01*
X016529Y001767D01*
X016512Y001804D01*
X016499Y001843D01*
X016489Y001883D01*
X016483Y001924D01*
X016481Y001965D01*
D11*
X016232Y009464D03*
X016232Y009474D03*
X016232Y009484D03*
X016232Y009494D03*
X016232Y009504D03*
X016232Y009514D03*
X016232Y009584D03*
X016232Y009594D03*
X016232Y009604D03*
X016232Y009614D03*
X016232Y009624D03*
X016232Y009634D03*
X016352Y009634D03*
X016352Y009624D03*
X016352Y009614D03*
X016352Y009604D03*
X016352Y009594D03*
X016352Y009584D03*
X016352Y009644D03*
X016352Y009654D03*
X016352Y009664D03*
X016352Y009674D03*
X016352Y009684D03*
X016352Y009694D03*
X016352Y009704D03*
X016352Y009714D03*
X016352Y009724D03*
X016352Y009734D03*
X016352Y009744D03*
X016352Y009754D03*
X016352Y009824D03*
X016352Y009834D03*
X016352Y009844D03*
X016352Y009854D03*
X016352Y009864D03*
X016352Y009874D03*
X016112Y009884D03*
X016112Y009894D03*
X016112Y009904D03*
X016112Y009914D03*
X016112Y009924D03*
X016112Y009934D03*
X016112Y009814D03*
X016112Y009804D03*
X016112Y009794D03*
X016112Y009784D03*
X016112Y009774D03*
X016112Y009764D03*
X016112Y009754D03*
X016112Y009744D03*
X016112Y009734D03*
X016112Y009724D03*
X016112Y009714D03*
X016112Y009704D03*
X016112Y009694D03*
X016112Y009684D03*
X016112Y009674D03*
X016112Y009664D03*
X016112Y009654D03*
X016112Y009644D03*
X016112Y009634D03*
X016112Y009624D03*
X016112Y009614D03*
X016112Y009604D03*
X016112Y009594D03*
X016112Y009584D03*
X015992Y009584D03*
X015992Y009594D03*
X015992Y009604D03*
X015992Y009614D03*
X015992Y009624D03*
X015992Y009634D03*
X015992Y009644D03*
X015992Y009654D03*
X015992Y009664D03*
X015992Y009674D03*
X015992Y009684D03*
X015992Y009694D03*
X015992Y009704D03*
X015992Y009714D03*
X015992Y009724D03*
X015992Y009734D03*
X015992Y009744D03*
X015992Y009754D03*
X015992Y009764D03*
X015992Y009774D03*
X015992Y009784D03*
X015992Y009794D03*
X015992Y009804D03*
X015992Y009814D03*
X015812Y009754D03*
X015812Y009744D03*
X015812Y009734D03*
X015812Y009724D03*
X015812Y009714D03*
X015812Y009704D03*
X015632Y009574D03*
X015632Y009564D03*
X015632Y009554D03*
X015632Y009544D03*
X015632Y009534D03*
X015632Y009524D03*
X015572Y009584D03*
X015572Y009594D03*
X015572Y009604D03*
X015572Y009614D03*
X015572Y009624D03*
X015572Y009634D03*
X015572Y009644D03*
X015572Y009654D03*
X015572Y009664D03*
X015572Y009674D03*
X015572Y009684D03*
X015572Y009694D03*
X015572Y009704D03*
X015572Y009714D03*
X015572Y009724D03*
X015572Y009734D03*
X015572Y009744D03*
X015572Y009754D03*
X015332Y009754D03*
X015332Y009744D03*
X015332Y009734D03*
X015332Y009724D03*
X015332Y009714D03*
X015332Y009704D03*
X015332Y009694D03*
X015332Y009684D03*
X015332Y009674D03*
X015332Y009664D03*
X015332Y009654D03*
X015332Y009644D03*
X015272Y009634D03*
X015272Y009624D03*
X015272Y009614D03*
X015272Y009604D03*
X015272Y009594D03*
X015272Y009584D03*
X015212Y009574D03*
X015212Y009564D03*
X015212Y009554D03*
X015212Y009544D03*
X015212Y009534D03*
X015212Y009524D03*
X015152Y009514D03*
X015152Y009504D03*
X015152Y009494D03*
X015152Y009484D03*
X015152Y009474D03*
X015152Y009464D03*
X014912Y009474D03*
X014912Y009484D03*
X014912Y009494D03*
X014912Y009504D03*
X014912Y009514D03*
X014912Y009524D03*
X014912Y009534D03*
X014912Y009544D03*
X014912Y009554D03*
X014912Y009564D03*
X014912Y009574D03*
X014852Y009584D03*
X014852Y009594D03*
X014852Y009604D03*
X014852Y009614D03*
X014852Y009624D03*
X014852Y009634D03*
X014792Y009704D03*
X014792Y009714D03*
X014792Y009724D03*
X014792Y009734D03*
X014792Y009744D03*
X014792Y009754D03*
X014792Y009764D03*
X014792Y009774D03*
X014792Y009784D03*
X014792Y009794D03*
X014792Y009804D03*
X014792Y009814D03*
X014732Y009824D03*
X014732Y009834D03*
X014732Y009844D03*
X014732Y009854D03*
X014732Y009864D03*
X014732Y009874D03*
X014732Y009884D03*
X014732Y009894D03*
X014732Y009904D03*
X014732Y009914D03*
X014732Y009924D03*
X014732Y009934D03*
X014672Y009634D03*
X014672Y009624D03*
X014672Y009614D03*
X014672Y009604D03*
X014672Y009594D03*
X014672Y009584D03*
X014672Y009574D03*
X014672Y009564D03*
X014672Y009554D03*
X014672Y009544D03*
X014672Y009534D03*
X014672Y009524D03*
X014372Y009584D03*
X014372Y009594D03*
X014372Y009604D03*
X014372Y009614D03*
X014372Y009624D03*
X014372Y009634D03*
X014372Y009704D03*
X014372Y009714D03*
X014372Y009724D03*
X014372Y009734D03*
X014372Y009744D03*
X014372Y009754D03*
X014372Y009824D03*
X014372Y009834D03*
X014372Y009844D03*
X014372Y009854D03*
X014372Y009864D03*
X014372Y009874D03*
X014072Y009634D03*
X014072Y009624D03*
X014072Y009614D03*
X014072Y009604D03*
X014072Y009594D03*
X014072Y009584D03*
X014072Y009574D03*
X014072Y009564D03*
X014072Y009554D03*
X014072Y009544D03*
X014072Y009534D03*
X014072Y009524D03*
X013892Y009584D03*
X013892Y009594D03*
X013892Y009604D03*
X013892Y009614D03*
X013892Y009624D03*
X013892Y009634D03*
X013832Y009574D03*
X013832Y009564D03*
X013832Y009554D03*
X013832Y009544D03*
X013832Y009534D03*
X013832Y009524D03*
X013832Y009514D03*
X013832Y009504D03*
X013832Y009494D03*
X013832Y009484D03*
X013832Y009474D03*
X013832Y009464D03*
X013712Y009524D03*
X013712Y009534D03*
X013712Y009544D03*
X013712Y009554D03*
X013712Y009564D03*
X013712Y009574D03*
X013652Y009584D03*
X013652Y009594D03*
X013652Y009604D03*
X013652Y009614D03*
X013652Y009624D03*
X013652Y009634D03*
X013652Y009644D03*
X013652Y009654D03*
X013652Y009664D03*
X013652Y009674D03*
X013652Y009684D03*
X013652Y009694D03*
X013772Y009694D03*
X013772Y009684D03*
X013772Y009674D03*
X013772Y009664D03*
X013772Y009654D03*
X013772Y009644D03*
X013772Y009764D03*
X013772Y009774D03*
X013772Y009784D03*
X013772Y009794D03*
X013772Y009804D03*
X013772Y009814D03*
X013892Y009814D03*
X013892Y009804D03*
X013892Y009794D03*
X013892Y009784D03*
X013892Y009774D03*
X013892Y009764D03*
X013472Y009574D03*
X013472Y009564D03*
X013472Y009554D03*
X013472Y009544D03*
X013472Y009534D03*
X013472Y009524D03*
X013472Y009514D03*
X013472Y009504D03*
X013472Y009494D03*
X013472Y009484D03*
X013472Y009474D03*
X013472Y009464D03*
X013412Y009584D03*
X013412Y009594D03*
X013412Y009604D03*
X013412Y009614D03*
X013412Y009624D03*
X013412Y009634D03*
X013352Y009704D03*
X013352Y009714D03*
X013352Y009724D03*
X013352Y009734D03*
X013352Y009744D03*
X013352Y009754D03*
X013352Y009764D03*
X013352Y009774D03*
X013352Y009784D03*
X013352Y009794D03*
X013352Y009804D03*
X013352Y009814D03*
X013292Y009824D03*
X013292Y009834D03*
X013292Y009844D03*
X013292Y009854D03*
X013292Y009864D03*
X013292Y009874D03*
X013292Y009884D03*
X013292Y009894D03*
X013292Y009904D03*
X013292Y009914D03*
X013292Y009924D03*
X013292Y009934D03*
X013232Y009634D03*
X013232Y009624D03*
X013232Y009614D03*
X013232Y009604D03*
X013232Y009594D03*
X013232Y009584D03*
X013232Y009574D03*
X013232Y009564D03*
X013232Y009554D03*
X013232Y009544D03*
X013232Y009534D03*
X013232Y009524D03*
X015152Y009884D03*
X015152Y009894D03*
X015152Y009904D03*
X015152Y009914D03*
X015152Y009924D03*
X015152Y009934D03*
X015212Y009874D03*
X015212Y009864D03*
X015212Y009854D03*
X015212Y009844D03*
X015212Y009834D03*
X015212Y009824D03*
X015272Y009814D03*
X015272Y009804D03*
X015272Y009794D03*
X015272Y009784D03*
X015272Y009774D03*
X015272Y009764D03*
D12*
X015722Y009514D03*
X015722Y009504D03*
X015722Y009494D03*
X015722Y009484D03*
X015722Y009474D03*
X015722Y009464D03*
X016322Y009764D03*
X016322Y009774D03*
X016322Y009784D03*
X016322Y009794D03*
X016322Y009804D03*
X016322Y009814D03*
X014582Y009514D03*
X014582Y009504D03*
X014582Y009494D03*
X014582Y009484D03*
X014582Y009474D03*
X014582Y009464D03*
X013922Y009644D03*
X013922Y009654D03*
X013922Y009664D03*
X013922Y009674D03*
X013922Y009684D03*
X013922Y009694D03*
X013142Y009514D03*
X013142Y009504D03*
X013142Y009494D03*
X013142Y009484D03*
X013142Y009474D03*
X013142Y009464D03*
D13*
X013352Y009644D03*
X013352Y009654D03*
X013352Y009664D03*
X013352Y009674D03*
X013352Y009684D03*
X013352Y009694D03*
X014192Y009514D03*
X014192Y009504D03*
X014192Y009494D03*
X014192Y009484D03*
X014192Y009474D03*
X014192Y009464D03*
X014792Y009644D03*
X014792Y009654D03*
X014792Y009664D03*
X014792Y009674D03*
X014792Y009684D03*
X014792Y009694D03*
X015692Y009764D03*
X015692Y009774D03*
X015692Y009784D03*
X015692Y009794D03*
X015692Y009804D03*
X015692Y009814D03*
X016112Y009574D03*
X016112Y009564D03*
X016112Y009554D03*
X016112Y009544D03*
X016112Y009534D03*
X016112Y009524D03*
D14*
X014252Y009644D03*
X014252Y009654D03*
X014252Y009664D03*
X014252Y009674D03*
X014252Y009684D03*
X014252Y009694D03*
D15*
X013802Y009704D03*
X013802Y009714D03*
X013802Y009724D03*
X013802Y009734D03*
X013802Y009744D03*
X013802Y009754D03*
X015722Y009884D03*
X015722Y009894D03*
X015722Y009904D03*
X015722Y009914D03*
X015722Y009924D03*
X015722Y009934D03*
X016142Y009874D03*
X016142Y009864D03*
X016142Y009854D03*
X016142Y009844D03*
X016142Y009834D03*
X016142Y009824D03*
D16*
X014282Y009814D03*
X014282Y009804D03*
X014282Y009794D03*
X014282Y009784D03*
X014282Y009774D03*
X014282Y009764D03*
D17*
X014347Y010085D02*
X014523Y010085D01*
X014581Y010143D01*
X014581Y010260D01*
X014523Y010318D01*
X014347Y010318D01*
X014213Y010260D02*
X014154Y010318D01*
X014037Y010318D01*
X013979Y010260D01*
X013979Y010202D01*
X014213Y010202D01*
X014213Y010260D02*
X014213Y010143D01*
X014154Y010085D01*
X014037Y010085D01*
X013844Y010143D02*
X013844Y010260D01*
X013786Y010318D01*
X013611Y010318D01*
X013611Y010435D02*
X013611Y010085D01*
X013786Y010085D01*
X013844Y010143D01*
X013108Y010085D02*
X012933Y010085D01*
X012874Y010143D01*
X012874Y010260D01*
X012933Y010318D01*
X013108Y010318D01*
X013108Y010435D02*
X013108Y010085D01*
X012739Y010143D02*
X012739Y010318D01*
X012506Y010318D02*
X012506Y010027D01*
X012564Y009968D01*
X012623Y009968D01*
X012681Y010085D02*
X012506Y010085D01*
X012681Y010085D02*
X012739Y010143D01*
X011219Y010136D02*
X011219Y009786D01*
X011219Y009902D02*
X011044Y009902D01*
X010986Y009961D01*
X010986Y010078D01*
X011044Y010136D01*
X011219Y010136D01*
X011103Y009902D02*
X010986Y009786D01*
X010851Y009786D02*
X010618Y009786D01*
X010734Y009786D02*
X010734Y010136D01*
X010851Y010019D01*
X010793Y009585D02*
X010676Y009585D01*
X010618Y009526D01*
X010618Y009468D01*
X010676Y009410D01*
X010618Y009351D01*
X010618Y009293D01*
X010676Y009235D01*
X010793Y009235D01*
X010851Y009293D01*
X010986Y009235D02*
X011103Y009351D01*
X011044Y009351D02*
X011219Y009351D01*
X011219Y009235D02*
X011219Y009585D01*
X011044Y009585D01*
X010986Y009526D01*
X010986Y009410D01*
X011044Y009351D01*
X010851Y009526D02*
X010793Y009585D01*
X010734Y009410D02*
X010676Y009410D01*
X010511Y009218D02*
X010453Y009218D01*
X010219Y008984D01*
X010161Y008984D01*
X010219Y008850D02*
X010161Y008791D01*
X010161Y008674D01*
X010219Y008616D01*
X010453Y008616D01*
X010511Y008674D01*
X010511Y008791D01*
X010453Y008850D01*
X010511Y008984D02*
X010511Y009218D01*
X009566Y009159D02*
X009566Y009043D01*
X009508Y008984D01*
X009449Y008984D01*
X009391Y009043D01*
X009391Y009159D01*
X009333Y009218D01*
X009274Y009218D01*
X009216Y009159D01*
X009216Y009043D01*
X009274Y008984D01*
X009333Y008984D01*
X009391Y009043D01*
X009391Y009159D02*
X009449Y009218D01*
X009508Y009218D01*
X009566Y009159D01*
X009508Y008850D02*
X009391Y008850D01*
X009333Y008791D01*
X009333Y008616D01*
X009333Y008733D02*
X009216Y008850D01*
X009508Y008850D02*
X009566Y008791D01*
X009566Y008616D01*
X009216Y008616D01*
X008657Y008537D02*
X008657Y008712D01*
X008598Y008771D01*
X008482Y008771D01*
X008423Y008712D01*
X008423Y008537D01*
X008306Y008537D02*
X008657Y008537D01*
X008423Y008654D02*
X008306Y008771D01*
X008306Y008906D02*
X008540Y009139D01*
X008598Y009139D01*
X008657Y009081D01*
X008657Y008964D01*
X008598Y008906D01*
X008306Y008906D02*
X008306Y009139D01*
X007250Y008375D02*
X007191Y008433D01*
X007133Y008433D01*
X007074Y008375D01*
X007016Y008433D01*
X006958Y008433D01*
X006899Y008375D01*
X006899Y008258D01*
X006958Y008200D01*
X006817Y008200D02*
X006641Y008200D01*
X006700Y008316D01*
X006700Y008375D01*
X006641Y008433D01*
X006525Y008433D01*
X006466Y008375D01*
X006466Y008258D01*
X006525Y008200D01*
X006466Y008065D02*
X006466Y007831D01*
X006466Y007948D02*
X006817Y007948D01*
X006700Y007831D01*
X006758Y007696D02*
X006641Y007696D01*
X006583Y007638D01*
X006583Y007463D01*
X006583Y007580D02*
X006466Y007696D01*
X006466Y007463D02*
X006817Y007463D01*
X006817Y007638D01*
X006758Y007696D01*
X006899Y007696D02*
X007016Y007580D01*
X007016Y007638D02*
X007016Y007463D01*
X006899Y007463D02*
X007250Y007463D01*
X007250Y007638D01*
X007191Y007696D01*
X007074Y007696D01*
X007016Y007638D01*
X006899Y007831D02*
X006899Y008065D01*
X006899Y007948D02*
X007250Y007948D01*
X007133Y007831D01*
X007191Y008200D02*
X007250Y008258D01*
X007250Y008375D01*
X007074Y008375D02*
X007074Y008316D01*
X006817Y008200D02*
X006817Y008433D01*
X006574Y008563D02*
X006574Y008738D01*
X006516Y008796D01*
X006399Y008796D01*
X006340Y008738D01*
X006340Y008563D01*
X006224Y008563D02*
X006574Y008563D01*
X006340Y008679D02*
X006224Y008796D01*
X006224Y008931D02*
X006224Y009165D01*
X006224Y009048D02*
X006574Y009048D01*
X006457Y008931D01*
X006062Y009195D02*
X006062Y009545D01*
X005887Y009545D01*
X005828Y009487D01*
X005828Y009370D01*
X005887Y009312D01*
X006062Y009312D01*
X005945Y009312D02*
X005828Y009195D01*
X005694Y009195D02*
X005460Y009195D01*
X005577Y009195D02*
X005577Y009545D01*
X005694Y009429D01*
X005325Y009370D02*
X005092Y009370D01*
X005150Y009195D02*
X005150Y009545D01*
X005325Y009370D01*
X004866Y009406D02*
X004866Y009603D01*
X004866Y009899D02*
X004866Y009997D01*
X003685Y009997D01*
X003685Y009899D01*
X003728Y010101D02*
X003961Y010101D01*
X003845Y010101D02*
X003845Y010451D01*
X003961Y010334D01*
X004096Y010393D02*
X004154Y010451D01*
X004271Y010451D01*
X004330Y010393D01*
X004330Y010159D01*
X004271Y010101D01*
X004154Y010101D01*
X004096Y010159D01*
X004118Y010509D02*
X004709Y010509D01*
X004118Y010509D02*
X004118Y011493D01*
X003917Y011160D02*
X003975Y011101D01*
X003975Y010868D01*
X003917Y010809D01*
X003800Y010809D01*
X003742Y010868D01*
X003607Y010868D02*
X003549Y010809D01*
X003432Y010809D01*
X003373Y010868D01*
X003373Y011101D01*
X003432Y011160D01*
X003549Y011160D01*
X003607Y011101D01*
X003607Y010868D01*
X003742Y011101D02*
X003800Y011160D01*
X003917Y011160D01*
X003239Y011160D02*
X003239Y010809D01*
X003090Y010687D02*
X002973Y010687D01*
X002915Y010629D01*
X002780Y010629D02*
X002722Y010687D01*
X002605Y010687D01*
X002547Y010629D01*
X002547Y010570D01*
X002780Y010337D01*
X002547Y010337D01*
X002412Y010395D02*
X002178Y010629D01*
X002178Y010395D01*
X002237Y010337D01*
X002354Y010337D01*
X002412Y010395D01*
X002412Y010629D01*
X002354Y010687D01*
X002237Y010687D01*
X002178Y010629D01*
X002695Y010809D02*
X002695Y011160D01*
X002870Y010984D01*
X002637Y010984D01*
X003005Y010809D02*
X003005Y011160D01*
X003239Y011160D02*
X003005Y010809D01*
X003090Y010687D02*
X003149Y010629D01*
X003149Y010395D01*
X003090Y010337D01*
X002973Y010337D01*
X002915Y010395D01*
X003359Y010393D02*
X003359Y010159D01*
X003418Y010101D01*
X003535Y010101D01*
X003593Y010159D01*
X003535Y010276D02*
X003359Y010276D01*
X003359Y010393D02*
X003418Y010451D01*
X003535Y010451D01*
X003593Y010393D01*
X003593Y010334D01*
X003535Y010276D01*
X003685Y009603D02*
X003685Y009406D01*
X003685Y009111D02*
X003685Y008914D01*
X003685Y008619D02*
X003685Y008422D01*
X003784Y008422D02*
X003882Y008521D01*
X003784Y008521D01*
X003784Y008422D01*
X003784Y008432D02*
X003794Y008432D01*
X003784Y008480D02*
X003842Y008480D01*
X003685Y008127D02*
X003685Y008028D01*
X004866Y008028D01*
X004866Y008127D01*
X004855Y007964D02*
X004622Y007964D01*
X004622Y007906D01*
X004855Y007672D01*
X004855Y007614D01*
X004990Y007672D02*
X004990Y007964D01*
X005224Y007964D02*
X005224Y007672D01*
X005165Y007614D01*
X005049Y007614D01*
X004990Y007672D01*
X004330Y007679D02*
X004271Y007620D01*
X004154Y007620D01*
X004096Y007679D01*
X003961Y007620D02*
X003728Y007620D01*
X003845Y007620D02*
X003845Y007971D01*
X003961Y007854D01*
X004096Y007912D02*
X004154Y007971D01*
X004271Y007971D01*
X004330Y007912D01*
X004330Y007679D01*
X003593Y007679D02*
X003593Y007737D01*
X003535Y007796D01*
X003418Y007796D01*
X003359Y007737D01*
X003359Y007679D01*
X003418Y007620D01*
X003535Y007620D01*
X003593Y007679D01*
X003535Y007796D02*
X003593Y007854D01*
X003593Y007912D01*
X003535Y007971D01*
X003418Y007971D01*
X003359Y007912D01*
X003359Y007854D01*
X003418Y007796D01*
X003149Y007683D02*
X003090Y007624D01*
X002973Y007624D01*
X002915Y007683D01*
X002780Y007624D02*
X002547Y007624D01*
X002663Y007624D02*
X002663Y007975D01*
X002780Y007858D01*
X002915Y007916D02*
X002973Y007975D01*
X003090Y007975D01*
X003149Y007916D01*
X003149Y007683D01*
X002412Y007683D02*
X002412Y007624D01*
X002412Y007683D02*
X002178Y007916D01*
X002178Y007975D01*
X002412Y007975D01*
X002893Y006908D02*
X002893Y006849D01*
X003126Y006616D01*
X003126Y006557D01*
X003261Y006557D02*
X003261Y006908D01*
X003126Y006908D02*
X002893Y006908D01*
X003261Y006557D02*
X003495Y006908D01*
X003495Y006557D01*
X003629Y006616D02*
X003629Y006849D01*
X003688Y006908D01*
X003805Y006908D01*
X003863Y006849D01*
X003863Y006616D01*
X003805Y006557D01*
X003688Y006557D01*
X003629Y006616D01*
X003998Y006616D02*
X004056Y006557D01*
X004173Y006557D01*
X004231Y006616D01*
X004231Y006849D01*
X004173Y006908D01*
X004056Y006908D01*
X003998Y006849D01*
X004866Y008422D02*
X004866Y008619D01*
X004866Y008914D02*
X004866Y009111D01*
X006224Y009358D02*
X006224Y009474D01*
X006282Y009533D01*
X006340Y009533D01*
X006399Y009474D01*
X006399Y009299D01*
X006282Y009299D01*
X006224Y009358D01*
X006399Y009299D02*
X006516Y009416D01*
X006574Y009533D01*
X007566Y010101D02*
X007566Y010451D01*
X007741Y010276D01*
X007507Y010276D01*
X007583Y010509D02*
X008174Y010509D01*
X008109Y010393D02*
X008051Y010451D01*
X007934Y010451D01*
X007876Y010393D01*
X007876Y010159D01*
X007934Y010101D01*
X008051Y010101D01*
X008109Y010159D01*
X008109Y010393D01*
X007992Y010217D02*
X007876Y010101D01*
X007583Y010509D02*
X007583Y011493D01*
X007071Y011493D02*
X007071Y010509D01*
X006481Y010509D01*
X007071Y012674D02*
X007071Y012871D01*
X004118Y012871D01*
X004118Y012674D01*
X007583Y012674D02*
X007583Y012871D01*
X009945Y012871D01*
X009945Y012674D01*
X010239Y012761D02*
X010239Y012528D01*
X010473Y012761D01*
X010531Y012761D01*
X010590Y012703D01*
X010590Y012586D01*
X010531Y012528D01*
X010590Y012393D02*
X010239Y012393D01*
X010590Y012159D01*
X010239Y012159D01*
X010298Y012025D02*
X010239Y011966D01*
X010239Y011849D01*
X010298Y011791D01*
X010531Y011791D01*
X010590Y011849D01*
X010590Y011966D01*
X010531Y012025D01*
X010298Y012025D01*
X010298Y011656D02*
X010239Y011598D01*
X010239Y011481D01*
X010298Y011423D01*
X010531Y011423D01*
X010590Y011481D01*
X010590Y011598D01*
X010531Y011656D01*
X009945Y011493D02*
X009945Y010509D01*
X009355Y010509D01*
X011444Y008818D02*
X011444Y008759D01*
X011503Y008701D01*
X011619Y008701D01*
X011678Y008759D01*
X011678Y008818D01*
X011619Y008876D01*
X011503Y008876D01*
X011444Y008818D01*
X011503Y008701D02*
X011444Y008643D01*
X011444Y008584D01*
X011503Y008526D01*
X011619Y008526D01*
X011678Y008584D01*
X011678Y008643D01*
X011619Y008701D01*
X011813Y008584D02*
X011871Y008526D01*
X011988Y008526D01*
X012046Y008584D01*
X012046Y008818D01*
X011988Y008876D01*
X011871Y008876D01*
X011813Y008818D01*
X013389Y008293D02*
X013389Y008177D01*
X013447Y008118D01*
X013564Y008118D02*
X013623Y008235D01*
X013623Y008293D01*
X013564Y008352D01*
X013447Y008352D01*
X013389Y008293D01*
X013564Y008118D02*
X013739Y008118D01*
X013739Y008352D01*
X013681Y007983D02*
X013564Y007983D01*
X013506Y007925D01*
X013506Y007750D01*
X013506Y007867D02*
X013389Y007983D01*
X013389Y007750D02*
X013739Y007750D01*
X013739Y007925D01*
X013681Y007983D01*
X013739Y007604D02*
X013681Y007487D01*
X013564Y007370D01*
X013564Y007545D01*
X013506Y007604D01*
X013447Y007604D01*
X013389Y007545D01*
X013389Y007429D01*
X013447Y007370D01*
X013564Y007370D01*
X013564Y007235D02*
X013506Y007177D01*
X013506Y007002D01*
X013506Y007119D02*
X013389Y007235D01*
X013564Y007235D02*
X013681Y007235D01*
X013739Y007177D01*
X013739Y007002D01*
X013389Y007002D01*
X013868Y007041D02*
X013868Y006808D01*
X014101Y007041D01*
X014160Y007041D01*
X014218Y006983D01*
X014218Y006866D01*
X014160Y006808D01*
X014160Y006673D02*
X014218Y006614D01*
X014218Y006498D01*
X014160Y006439D01*
X013926Y006439D01*
X013868Y006498D01*
X013868Y006614D01*
X013926Y006673D01*
X013868Y007176D02*
X014101Y007409D01*
X014160Y007409D01*
X014218Y007351D01*
X014218Y007234D01*
X014160Y007176D01*
X013868Y007176D02*
X013868Y007409D01*
X012046Y007007D02*
X012046Y006773D01*
X011988Y006715D01*
X011871Y006715D01*
X011813Y006773D01*
X011678Y006773D02*
X011619Y006715D01*
X011503Y006715D01*
X011444Y006773D01*
X011444Y007007D01*
X011503Y007065D01*
X011619Y007065D01*
X011678Y007007D01*
X011678Y006948D01*
X011619Y006890D01*
X011444Y006890D01*
X011813Y007007D02*
X011871Y007065D01*
X011988Y007065D01*
X012046Y007007D01*
X009369Y006951D02*
X009369Y007301D01*
X009194Y007301D01*
X009135Y007243D01*
X009135Y007126D01*
X009194Y007068D01*
X009369Y007068D01*
X009252Y007068D02*
X009135Y006951D01*
X009001Y006951D02*
X009001Y007009D01*
X008767Y007243D01*
X008767Y007301D01*
X009001Y007301D01*
X008624Y007295D02*
X008624Y006945D01*
X008624Y007062D02*
X008448Y007062D01*
X008390Y007120D01*
X008390Y007237D01*
X008448Y007295D01*
X008624Y007295D01*
X008507Y007062D02*
X008390Y006945D01*
X008255Y006945D02*
X008022Y006945D01*
X008138Y006945D02*
X008138Y007295D01*
X008255Y007178D01*
X007887Y007237D02*
X007829Y007295D01*
X007712Y007295D01*
X007653Y007237D01*
X007653Y007178D01*
X007887Y006945D01*
X007653Y006945D01*
X007468Y006945D02*
X007468Y007295D01*
X007293Y007295D01*
X007234Y007237D01*
X007234Y007120D01*
X007293Y007062D01*
X007468Y007062D01*
X007351Y007062D02*
X007234Y006945D01*
X007100Y007120D02*
X006866Y007120D01*
X006924Y006945D02*
X006924Y007295D01*
X007100Y007120D01*
X011312Y003542D02*
X011312Y003484D01*
X011371Y003425D01*
X011312Y003367D01*
X011312Y003309D01*
X011371Y003250D01*
X011487Y003250D01*
X011546Y003309D01*
X011681Y003250D02*
X011914Y003250D01*
X011681Y003484D01*
X011681Y003542D01*
X011739Y003601D01*
X011856Y003601D01*
X011914Y003542D01*
X012049Y003542D02*
X012107Y003601D01*
X012224Y003601D01*
X012282Y003542D01*
X012282Y003309D01*
X012224Y003250D01*
X012107Y003250D01*
X012049Y003309D01*
X011546Y003542D02*
X011487Y003601D01*
X011371Y003601D01*
X011312Y003542D01*
X011371Y003425D02*
X011429Y003425D01*
X013488Y003580D02*
X013488Y003776D01*
X013685Y003776D01*
X014031Y004090D02*
X014031Y004148D01*
X014090Y004207D01*
X014265Y004207D01*
X014265Y004090D01*
X014207Y004031D01*
X014090Y004031D01*
X014031Y004090D01*
X014148Y004323D02*
X014265Y004207D01*
X014148Y004323D02*
X014031Y004382D01*
X014400Y004382D02*
X014400Y004090D01*
X014458Y004031D01*
X014575Y004031D01*
X014633Y004090D01*
X014633Y004382D01*
X014617Y004561D02*
X014383Y004561D01*
X014500Y004561D02*
X014500Y004912D01*
X014617Y004795D01*
X014751Y004795D02*
X014751Y004853D01*
X014810Y004912D01*
X014927Y004912D01*
X014985Y004853D01*
X015120Y004853D02*
X015178Y004912D01*
X015295Y004912D01*
X015353Y004853D01*
X015353Y004620D01*
X015295Y004561D01*
X015178Y004561D01*
X015120Y004620D01*
X014985Y004561D02*
X014751Y004795D01*
X014751Y004561D02*
X014985Y004561D01*
X015094Y004303D02*
X015328Y004303D01*
X015328Y004128D01*
X015211Y004186D01*
X015153Y004186D01*
X015094Y004128D01*
X015094Y004011D01*
X015153Y003953D01*
X015269Y003953D01*
X015328Y004011D01*
X015463Y003953D02*
X015696Y003953D01*
X015579Y003953D02*
X015579Y004303D01*
X015696Y004186D01*
X015831Y004245D02*
X015889Y004303D01*
X016006Y004303D01*
X016065Y004245D01*
X016065Y004011D01*
X016006Y003953D01*
X015889Y003953D01*
X015831Y004011D01*
X016019Y004858D02*
X016136Y004858D01*
X016194Y004917D01*
X016194Y004975D01*
X016136Y005033D01*
X016019Y005033D01*
X015960Y004975D01*
X015960Y004917D01*
X016019Y004858D01*
X016019Y005033D02*
X015960Y005092D01*
X015960Y005150D01*
X016019Y005208D01*
X016136Y005208D01*
X016194Y005150D01*
X016194Y005092D01*
X016136Y005033D01*
X016329Y004917D02*
X016329Y005208D01*
X016562Y005208D02*
X016562Y004917D01*
X016504Y004858D01*
X016387Y004858D01*
X016329Y004917D01*
X014670Y003776D02*
X014473Y003776D01*
X014670Y003776D02*
X014670Y003580D01*
X014670Y002792D02*
X014670Y002595D01*
X014473Y002595D01*
X014937Y002334D02*
X015054Y002276D01*
X015170Y002159D01*
X014995Y002159D01*
X014937Y002101D01*
X014937Y002043D01*
X014995Y001984D01*
X015112Y001984D01*
X015170Y002043D01*
X015170Y002159D01*
X015305Y001984D02*
X015539Y001984D01*
X015422Y001984D02*
X015422Y002334D01*
X015539Y002218D01*
X015673Y002276D02*
X015732Y002334D01*
X015849Y002334D01*
X015907Y002276D01*
X015907Y002043D01*
X015849Y001984D01*
X015732Y001984D01*
X015673Y002043D01*
X014763Y001731D02*
X014763Y001498D01*
X014704Y001439D01*
X014588Y001439D01*
X014529Y001498D01*
X014394Y001439D02*
X014161Y001439D01*
X014278Y001439D02*
X014278Y001790D01*
X014394Y001673D01*
X014529Y001731D02*
X014588Y001790D01*
X014704Y001790D01*
X014763Y001731D01*
X014026Y001614D02*
X013793Y001614D01*
X013851Y001439D02*
X013851Y001790D01*
X014026Y001614D01*
X013685Y002595D02*
X013488Y002595D01*
X013488Y002792D01*
X014716Y010085D02*
X014716Y010318D01*
X014949Y010318D02*
X014949Y010143D01*
X014891Y010085D01*
X014716Y010085D01*
X015084Y010085D02*
X015084Y010435D01*
X015084Y010318D02*
X015259Y010318D01*
X015318Y010260D01*
X015318Y010143D01*
X015259Y010085D01*
X015084Y010085D01*
X015452Y010143D02*
X015452Y010260D01*
X015511Y010318D01*
X015628Y010318D01*
X015686Y010260D01*
X015686Y010143D01*
X015628Y010085D01*
X015511Y010085D01*
X015452Y010143D01*
X015818Y010318D02*
X015876Y010318D01*
X015993Y010202D01*
X015993Y010318D02*
X015993Y010085D01*
X016128Y010260D02*
X016186Y010202D01*
X016361Y010202D01*
X016361Y010085D02*
X016361Y010435D01*
X016186Y010435D01*
X016128Y010377D01*
X016128Y010260D01*
X014172Y012030D02*
X013939Y012030D01*
X013804Y012030D02*
X013570Y012263D01*
X013570Y012322D01*
X013629Y012380D01*
X013745Y012380D01*
X013804Y012322D01*
X013804Y012030D02*
X013570Y012030D01*
X014172Y012030D02*
X014172Y012380D01*
D18*
X015205Y011422D03*
X015205Y011406D03*
X015205Y011391D03*
X015205Y011375D03*
X015205Y011359D03*
X015205Y011343D03*
X015205Y011328D03*
X015205Y011312D03*
X015205Y011296D03*
X015205Y011280D03*
X015205Y011265D03*
X015205Y011249D03*
X015205Y011044D03*
X015205Y011028D03*
X015205Y011013D03*
X015205Y010997D03*
X015205Y010981D03*
X015205Y010965D03*
X015205Y010855D03*
X015205Y010839D03*
X015205Y010824D03*
X015205Y010808D03*
X015205Y010792D03*
X015205Y010776D03*
X015205Y010761D03*
X015205Y010745D03*
X015205Y010729D03*
X015205Y010713D03*
X015205Y010698D03*
X015205Y010682D03*
X015394Y010776D03*
X015394Y010792D03*
X015394Y010808D03*
X015394Y010824D03*
X015394Y010839D03*
X015394Y010855D03*
X015583Y010855D03*
X015583Y010839D03*
X015583Y010824D03*
X015583Y010808D03*
X015583Y010792D03*
X015583Y010776D03*
X015583Y010871D03*
X015583Y010887D03*
X015583Y010902D03*
X015583Y010918D03*
X015583Y010934D03*
X015583Y010950D03*
X015583Y010965D03*
X015583Y010981D03*
X015583Y010997D03*
X015583Y011013D03*
X015583Y011028D03*
X015583Y011044D03*
X015583Y011060D03*
X015583Y011076D03*
X015583Y011091D03*
X015583Y011107D03*
X015583Y011123D03*
X015583Y011139D03*
X015961Y011044D03*
X015961Y011028D03*
X015961Y011013D03*
X015961Y010997D03*
X015961Y010981D03*
X015961Y010965D03*
X015961Y010855D03*
X015961Y010839D03*
X015961Y010824D03*
X015961Y010808D03*
X015961Y010792D03*
X015961Y010776D03*
X015961Y010761D03*
X015961Y010745D03*
X015961Y010729D03*
X015961Y010713D03*
X015961Y010698D03*
X015961Y010682D03*
X016150Y010776D03*
X016150Y010792D03*
X016150Y010808D03*
X016150Y010824D03*
X016150Y010839D03*
X016150Y010855D03*
X016150Y011060D03*
X016150Y011076D03*
X016150Y011091D03*
X016150Y011107D03*
X016150Y011123D03*
X016150Y011139D03*
X015961Y011249D03*
X015961Y011265D03*
X015961Y011280D03*
X015961Y011296D03*
X015961Y011312D03*
X015961Y011328D03*
X015961Y011343D03*
X015961Y011359D03*
X015961Y011375D03*
X015961Y011391D03*
X015961Y011406D03*
X015961Y011422D03*
X015677Y010761D03*
X015677Y010745D03*
X015677Y010729D03*
X015677Y010713D03*
X015677Y010698D03*
X015677Y010682D03*
X014922Y010776D03*
X014922Y010792D03*
X014922Y010808D03*
X014922Y010824D03*
X014922Y010839D03*
X014922Y010855D03*
X014922Y010871D03*
X014922Y010887D03*
X014922Y010902D03*
X014922Y010918D03*
X014922Y010934D03*
X014922Y010950D03*
X014827Y010965D03*
X014827Y010981D03*
X014827Y010997D03*
X014827Y011013D03*
X014827Y011028D03*
X014827Y011044D03*
X014827Y011060D03*
X014827Y011076D03*
X014827Y011091D03*
X014827Y011107D03*
X014827Y011123D03*
X014827Y011139D03*
X014638Y011139D03*
X014638Y011123D03*
X014638Y011107D03*
X014638Y011091D03*
X014638Y011076D03*
X014638Y011060D03*
X014638Y011044D03*
X014638Y011028D03*
X014638Y011013D03*
X014638Y010997D03*
X014638Y010981D03*
X014638Y010965D03*
X014638Y010950D03*
X014638Y010934D03*
X014638Y010918D03*
X014638Y010902D03*
X014638Y010887D03*
X014638Y010871D03*
X014638Y010855D03*
X014638Y010839D03*
X014638Y010824D03*
X014638Y010808D03*
X014638Y010792D03*
X014638Y010776D03*
X014827Y010761D03*
X014827Y010745D03*
X014827Y010729D03*
X014827Y010713D03*
X014827Y010698D03*
X014827Y010682D03*
X014355Y010776D03*
X014355Y010792D03*
X014355Y010808D03*
X014355Y010824D03*
X014355Y010839D03*
X014355Y010855D03*
X014355Y010871D03*
X014355Y010887D03*
X014355Y010902D03*
X014355Y010918D03*
X014355Y010934D03*
X014355Y010950D03*
X014355Y010965D03*
X014355Y010981D03*
X014355Y010997D03*
X014355Y011013D03*
X014355Y011028D03*
X014355Y011044D03*
X014355Y011060D03*
X014355Y011076D03*
X014355Y011091D03*
X014355Y011107D03*
X014355Y011123D03*
X014355Y011139D03*
X014355Y011154D03*
X014355Y011170D03*
X014355Y011186D03*
X014355Y011202D03*
X014355Y011217D03*
X014355Y011233D03*
X014544Y011233D03*
X014544Y011217D03*
X014544Y011202D03*
X014544Y011186D03*
X014544Y011170D03*
X014544Y011154D03*
X014166Y011154D03*
X014166Y011170D03*
X014166Y011186D03*
X014166Y011202D03*
X014166Y011217D03*
X014166Y011233D03*
X014071Y011139D03*
X014071Y011123D03*
X014071Y011107D03*
X014071Y011091D03*
X014071Y011076D03*
X014071Y011060D03*
X014071Y011044D03*
X014071Y011028D03*
X014071Y011013D03*
X014071Y010997D03*
X014071Y010981D03*
X014071Y010965D03*
X014071Y010950D03*
X014071Y010934D03*
X014071Y010918D03*
X014071Y010902D03*
X014071Y010887D03*
X014071Y010871D03*
X014071Y010855D03*
X014071Y010839D03*
X014071Y010824D03*
X014071Y010808D03*
X014071Y010792D03*
X014071Y010776D03*
X014166Y010761D03*
X014166Y010745D03*
X014166Y010729D03*
X014166Y010713D03*
X014166Y010698D03*
X014166Y010682D03*
X013882Y010776D03*
X013882Y010792D03*
X013882Y010808D03*
X013882Y010824D03*
X013882Y010839D03*
X013882Y010855D03*
X013882Y010871D03*
X013882Y010887D03*
X013882Y010902D03*
X013882Y010918D03*
X013882Y010934D03*
X013882Y010950D03*
X013882Y010965D03*
X013882Y010981D03*
X013882Y010997D03*
X013882Y011013D03*
X013882Y011028D03*
X013882Y011044D03*
X013882Y011060D03*
X013882Y011076D03*
X013882Y011091D03*
X013882Y011107D03*
X013882Y011123D03*
X013882Y011139D03*
X013315Y011139D03*
X013315Y011123D03*
X013315Y011107D03*
X013315Y011091D03*
X013315Y011076D03*
X013315Y011060D03*
X013315Y011044D03*
X013315Y011028D03*
X013315Y011013D03*
X013315Y010997D03*
X013315Y010981D03*
X013315Y010965D03*
X013315Y010950D03*
X013315Y010934D03*
X013315Y010918D03*
X013315Y010902D03*
X013315Y010887D03*
X013315Y010871D03*
X013315Y010855D03*
X013315Y010839D03*
X013315Y010824D03*
X013315Y010808D03*
X013315Y010792D03*
X013315Y010776D03*
X013126Y010761D03*
X013126Y010745D03*
X013126Y010729D03*
X013126Y010713D03*
X013126Y010698D03*
X013126Y010682D03*
X013032Y010776D03*
X013032Y010792D03*
X013032Y010808D03*
X013032Y010824D03*
X013032Y010839D03*
X013032Y010855D03*
X012937Y010871D03*
X012937Y010887D03*
X012937Y010902D03*
X012937Y010918D03*
X012937Y010934D03*
X012937Y010950D03*
X012937Y010965D03*
X012937Y010981D03*
X012937Y010997D03*
X012937Y011013D03*
X012937Y011028D03*
X012937Y011044D03*
X012937Y011060D03*
X012937Y011076D03*
X012937Y011091D03*
X012937Y011107D03*
X012937Y011123D03*
X012937Y011139D03*
X012937Y011249D03*
X012937Y011265D03*
X012937Y011280D03*
X012937Y011296D03*
X012937Y011312D03*
X012937Y011328D03*
X012937Y011343D03*
X012937Y011359D03*
X012937Y011375D03*
X012937Y011391D03*
X012937Y011406D03*
X012937Y011422D03*
X012843Y011532D03*
X012843Y011548D03*
X012843Y011564D03*
X012843Y011580D03*
X012843Y011595D03*
X012843Y011611D03*
X012748Y011517D03*
X012748Y011501D03*
X012748Y011485D03*
X012748Y011469D03*
X012748Y011454D03*
X012748Y011438D03*
X012559Y011532D03*
X012559Y011548D03*
X012559Y011564D03*
X012559Y011580D03*
X012559Y011595D03*
X012559Y011611D03*
X012654Y011627D03*
X012654Y011643D03*
X012654Y011658D03*
X012654Y011674D03*
X012654Y011690D03*
X012654Y011706D03*
X012559Y011139D03*
X012559Y011123D03*
X012559Y011107D03*
X012559Y011091D03*
X012559Y011076D03*
X012559Y011060D03*
X012559Y011044D03*
X012559Y011028D03*
X012559Y011013D03*
X012559Y010997D03*
X012559Y010981D03*
X012559Y010965D03*
X012559Y010950D03*
X012559Y010934D03*
X012559Y010918D03*
X012559Y010902D03*
X012559Y010887D03*
X012559Y010871D03*
X012559Y010855D03*
X012559Y010839D03*
X012559Y010824D03*
X012559Y010808D03*
X012559Y010792D03*
X012559Y010776D03*
D19*
X012701Y010761D03*
X012701Y010745D03*
X012701Y010729D03*
X012701Y010713D03*
X012701Y010698D03*
X012701Y010682D03*
X011567Y011060D03*
X011567Y011076D03*
X011567Y011091D03*
X011567Y011107D03*
X011567Y011123D03*
X011567Y011139D03*
X014496Y010761D03*
X014496Y010745D03*
X014496Y010729D03*
X014496Y010713D03*
X014496Y010698D03*
X014496Y010682D03*
X015158Y011060D03*
X015158Y011076D03*
X015158Y011091D03*
X015158Y011107D03*
X015158Y011123D03*
X015158Y011139D03*
X014969Y011154D03*
X014969Y011170D03*
X014969Y011186D03*
X014969Y011202D03*
X014969Y011217D03*
X014969Y011233D03*
X015252Y010950D03*
X015252Y010934D03*
X015252Y010918D03*
X015252Y010902D03*
X015252Y010887D03*
X015252Y010871D03*
X015725Y011154D03*
X015725Y011170D03*
X015725Y011186D03*
X015725Y011202D03*
X015725Y011217D03*
X015725Y011233D03*
X015914Y011139D03*
X015914Y011123D03*
X015914Y011107D03*
X015914Y011091D03*
X015914Y011076D03*
X015914Y011060D03*
X016008Y010950D03*
X016008Y010934D03*
X016008Y010918D03*
X016008Y010902D03*
X016008Y010887D03*
X016008Y010871D03*
D20*
X013599Y010761D03*
X013599Y010745D03*
X013599Y010729D03*
X013599Y010713D03*
X013599Y010698D03*
X013599Y010682D03*
X013599Y011154D03*
X013599Y011170D03*
X013599Y011186D03*
X013599Y011202D03*
X013599Y011217D03*
X013599Y011233D03*
X011331Y010761D03*
X011331Y010745D03*
X011331Y010729D03*
X011331Y010713D03*
X011331Y010698D03*
X011331Y010682D03*
D21*
X011520Y010776D03*
X011520Y010792D03*
X011520Y010808D03*
X011520Y010824D03*
X011520Y010839D03*
X011520Y010855D03*
X011142Y010965D03*
X011142Y010981D03*
X011142Y010997D03*
X011142Y011013D03*
X011142Y011028D03*
X011142Y011044D03*
X011142Y011060D03*
X011142Y011076D03*
X011142Y011091D03*
X011142Y011107D03*
X011142Y011123D03*
X011142Y011139D03*
X014355Y011249D03*
X014355Y011265D03*
X014355Y011280D03*
X014355Y011296D03*
X014355Y011312D03*
X014355Y011328D03*
X015300Y011233D03*
X015300Y011217D03*
X015300Y011202D03*
X015300Y011186D03*
X015300Y011170D03*
X015300Y011154D03*
X016055Y011154D03*
X016055Y011170D03*
X016055Y011186D03*
X016055Y011202D03*
X016055Y011217D03*
X016055Y011233D03*
D22*
X011378Y010950D03*
X011378Y010934D03*
X011378Y010918D03*
X011378Y010902D03*
X011378Y010887D03*
X011378Y010871D03*
D23*
X012040Y010965D03*
X012040Y010981D03*
X012040Y010997D03*
X012040Y011013D03*
X012040Y011028D03*
X012040Y011044D03*
X012796Y011154D03*
X012796Y011170D03*
X012796Y011186D03*
X012796Y011202D03*
X012796Y011217D03*
X012796Y011233D03*
D24*
X011331Y011233D03*
X011331Y011217D03*
X011331Y011202D03*
X011331Y011186D03*
X011331Y011170D03*
X011331Y011154D03*
D25*
X013445Y008880D02*
X013632Y008880D01*
X013632Y008740D01*
X013539Y008786D01*
X013492Y008786D01*
X013445Y008740D01*
X013445Y008646D01*
X013492Y008600D01*
X013586Y008600D01*
X013632Y008646D01*
X013740Y008600D02*
X013927Y008600D01*
X013833Y008600D02*
X013833Y008880D01*
X013927Y008786D01*
X014035Y008833D02*
X014035Y008646D01*
X014081Y008600D01*
X014175Y008600D01*
X014222Y008646D01*
X014035Y008833D01*
X014081Y008880D01*
X014175Y008880D01*
X014222Y008833D01*
X014222Y008646D01*
X014329Y008600D02*
X014516Y008600D01*
X014329Y008786D01*
X014329Y008833D01*
X014376Y008880D01*
X014469Y008880D01*
X014516Y008833D01*
X014919Y008880D02*
X015105Y008880D01*
X015105Y008600D01*
X014919Y008600D01*
X015012Y008740D02*
X015105Y008740D01*
X015213Y008880D02*
X015400Y008880D01*
X015307Y008880D02*
X015307Y008600D01*
X015508Y008600D02*
X015508Y008786D01*
X015601Y008880D01*
X015695Y008786D01*
X015695Y008600D01*
X015803Y008600D02*
X015989Y008600D01*
X015989Y008880D01*
X015803Y008880D01*
X015896Y008740D02*
X015989Y008740D01*
X016097Y008740D02*
X016097Y008833D01*
X016144Y008880D01*
X016284Y008880D01*
X016284Y008600D01*
X016284Y008693D02*
X016144Y008693D01*
X016097Y008740D01*
X016191Y008693D02*
X016097Y008600D01*
X016392Y008646D02*
X016439Y008600D01*
X016532Y008600D01*
X016579Y008646D01*
X016579Y008833D01*
X016532Y008880D01*
X016439Y008880D01*
X016392Y008833D01*
X015695Y008740D02*
X015508Y008740D01*
D26*
X010977Y006867D02*
X010977Y006139D01*
X010977Y006867D02*
X005445Y006867D01*
X004618Y006414D02*
X004618Y001749D01*
X004500Y001768D02*
X004456Y001772D01*
X004413Y001779D01*
X004370Y001789D01*
X004329Y001804D01*
X004288Y001821D01*
X004250Y001842D01*
X004213Y001866D01*
X004178Y001893D01*
X004145Y001922D01*
X004116Y001954D01*
X004088Y001989D01*
X004064Y002026D01*
X004043Y002064D01*
X004025Y002104D01*
X004011Y002146D01*
X004000Y002189D01*
X003992Y002232D01*
X003989Y002276D01*
X003988Y002320D01*
X003988Y005666D01*
X003990Y005708D01*
X003995Y005750D01*
X004004Y005792D01*
X004016Y005832D01*
X004031Y005872D01*
X004050Y005910D01*
X004071Y005946D01*
X004096Y005980D01*
X004123Y006013D01*
X004153Y006043D01*
X004186Y006070D01*
X004220Y006095D01*
X004256Y006116D01*
X004294Y006135D01*
X004334Y006150D01*
X004374Y006162D01*
X004416Y006171D01*
X004458Y006176D01*
X004500Y006178D01*
X005819Y001375D02*
X006567Y001375D01*
X007040Y001375D02*
X008929Y001375D01*
X009559Y001375D02*
X010977Y001375D01*
X010977Y001611D01*
D27*
X007789Y009501D02*
X006669Y009501D01*
X006669Y010021D01*
X007789Y010021D01*
X007789Y009501D01*
D28*
X015083Y007458D02*
X015536Y007458D01*
X015929Y007458D02*
X016382Y007458D01*
X016382Y007399D01*
X015083Y007399D02*
X015083Y007458D01*
X015083Y005430D02*
X015083Y005371D01*
X015536Y005371D01*
X015165Y005154D02*
X015167Y005168D01*
X015173Y005182D01*
X015181Y005194D01*
X015193Y005202D01*
X015207Y005208D01*
X015221Y005210D01*
X015235Y005208D01*
X015249Y005202D01*
X015261Y005194D01*
X015269Y005182D01*
X015275Y005168D01*
X015277Y005154D01*
X015275Y005140D01*
X015269Y005126D01*
X015261Y005114D01*
X015249Y005106D01*
X015235Y005100D01*
X015221Y005098D01*
X015207Y005100D01*
X015193Y005106D01*
X015181Y005114D01*
X015173Y005126D01*
X015167Y005140D01*
X015165Y005154D01*
X015929Y005371D02*
X016382Y005371D01*
X016382Y005430D01*
D29*
X013646Y003580D02*
X013648Y003592D01*
X013653Y003603D01*
X013662Y003612D01*
X013673Y003617D01*
X013685Y003619D01*
X013697Y003617D01*
X013708Y003612D01*
X013717Y003603D01*
X013722Y003592D01*
X013724Y003580D01*
X013722Y003568D01*
X013717Y003557D01*
X013708Y003548D01*
X013697Y003543D01*
X013685Y003541D01*
X013673Y003543D01*
X013662Y003548D01*
X013653Y003557D01*
X013648Y003568D01*
X013646Y003580D01*
M02*
