%
M48
M72
T01C0.0120
T02C0.0157
T03C0.0236
T04C0.0315
T05C0.0394
T06C0.0866
%
T01
X2780Y3068
X3479Y3028
X4335Y3225
X4394Y2832
X4394Y2517
X4709Y2517
X5024Y2517
X5024Y2202
X4709Y2202
X4709Y1887
X5024Y1887
X5890Y2241
X6441Y2162
X6756Y2162
X7071Y2162
X6363Y1454
X6008Y1454
X8055Y1454
X8370Y1454
X8685Y1454
X8394Y1847
X8945Y2753
X9256Y3619
X9492Y3855
X9748Y3580
X9945Y3934
X10142Y4131
X10339Y4328
X10520Y4623
X10914Y4367
X12268Y5233
X12307Y4761
X11461Y5509
X10024Y6808
X9758Y7162
X8055Y7989
X8134Y8501
X8095Y8855
X8095Y9288
X9748Y8776
X9985Y9013
X11953Y8265
X11953Y7782
X11953Y7438
X14079Y8028
X15221Y8422
X15536Y8422
X15851Y8422
X16166Y8422
X16048Y7438
X15733Y6887
X16914Y6690
X16914Y6375
X16914Y6060
X17544Y6217
X17544Y5902
X17544Y5587
X17544Y5273
X17544Y4958
X17544Y4643
X17544Y4328
X17544Y4013
X17544Y3698
X17229Y3698
X17229Y3383
X17544Y3383
X17544Y3068
X17229Y3068
X16914Y3068
X16914Y3383
X16599Y3068
X16303Y3895
X14886Y4131
X14886Y5213
X14000Y5824
X13292Y3973
X12544Y4052
X12780Y3265
X13055Y3009
X12504Y2615
X12063Y2540
X11953Y2044
X12229Y2044
X12366Y1808
X12229Y1572
X11953Y1572
X11815Y1808
X12091Y1808
X11677Y2044
X11402Y2044
X11363Y1690
X11677Y1572
X12504Y1572
X12642Y1808
X13095Y2005
X13331Y1804
X13567Y1572
X13174Y1296
X13321Y2221
X13370Y2536
X14571Y2556
X15020Y2513
X10496Y3147
X10260Y2891
X10457Y2654
X10339Y2162
X9733Y1375
X7406Y3087
X7091Y3087
X6776Y3087
X4906Y4367
X4906Y4643
X4906Y4918
X4315Y4879
X3764Y4682
X3410Y4564
X2977Y5154
X2347Y5194
X4433Y6769
X5811Y5627
X5811Y4643
X7544Y5666
X7859Y5666
X8174Y5666
X8055Y4839
X8394Y4839
X9142Y4623
X9536Y4623
X9079Y4111
X8764Y4111
X6048Y8983
X6717Y10745
X7032Y10745
X7347Y10745
X7662Y10745
X7977Y10745
X7977Y11060
X7977Y11375
X7662Y11375
X7662Y11060
X7347Y11060
X7347Y11375
X7032Y11060
X6717Y11060
X5870Y11473
X5870Y11788
X5870Y12103
X5280Y12103
X5280Y11788
X5280Y11473
X8469Y11473
X8469Y11788
X8469Y12103
X9059Y12103
X9059Y11788
X9059Y11473
X9394Y11336
X9709Y11336
X10969Y11965
X11284Y11965
X11599Y11965
X11914Y11965
X12229Y11965
X11914Y12280
X12504Y12595
X12819Y12595
X13134Y12595
X13134Y12280
X12819Y12280
X12819Y11965
X13134Y11965
X13449Y12280
X13449Y12595
X10969Y12280
X14040Y9091
X14315Y9091
X17544Y9052
X17544Y8737
X17544Y8422
X17544Y8107
X17544Y7792
X17544Y7477
X17544Y7162
X17544Y6847
X17544Y6532
X17544Y9367
X17544Y9682
X17544Y9997
X17544Y10312
X17544Y10627
X17544Y10942
T02
X11008Y7950
X8882Y8895
T03
X11914Y9682
X16914Y9645
X16914Y10145
X16914Y10645
X16914Y9145
X16914Y8645
X16914Y8145
X16914Y7645
X16914Y7145
X4607Y7359
X4107Y7359
X3607Y7359
X3107Y7359
X2607Y7359
T04
X10496Y10784
T05
X3764Y6099
T06
X2977Y1965
X2977Y11965
X16914Y11965
X16914Y1965
M30
