G75*
%MOIN*%
%OFA0B0*%
%FSLAX24Y24*%
%IPPOS*%
%LPD*%
%AMOC8*
5,1,8,0,0,1.08239X$1,22.5*
%
%ADD10C,0.0000*%
D10*
X002071Y001060D02*
X002071Y012871D01*
X017819Y012871D01*
X017819Y001060D01*
X002071Y001060D01*
X002544Y001965D02*
X002546Y002006D01*
X002552Y002047D01*
X002562Y002087D01*
X002575Y002126D01*
X002592Y002163D01*
X002613Y002199D01*
X002637Y002233D01*
X002664Y002264D01*
X002693Y002292D01*
X002726Y002318D01*
X002760Y002340D01*
X002797Y002359D01*
X002835Y002374D01*
X002875Y002386D01*
X002915Y002394D01*
X002956Y002398D01*
X002998Y002398D01*
X003039Y002394D01*
X003079Y002386D01*
X003119Y002374D01*
X003157Y002359D01*
X003193Y002340D01*
X003228Y002318D01*
X003261Y002292D01*
X003290Y002264D01*
X003317Y002233D01*
X003341Y002199D01*
X003362Y002163D01*
X003379Y002126D01*
X003392Y002087D01*
X003402Y002047D01*
X003408Y002006D01*
X003410Y001965D01*
X003408Y001924D01*
X003402Y001883D01*
X003392Y001843D01*
X003379Y001804D01*
X003362Y001767D01*
X003341Y001731D01*
X003317Y001697D01*
X003290Y001666D01*
X003261Y001638D01*
X003228Y001612D01*
X003194Y001590D01*
X003157Y001571D01*
X003119Y001556D01*
X003079Y001544D01*
X003039Y001536D01*
X002998Y001532D01*
X002956Y001532D01*
X002915Y001536D01*
X002875Y001544D01*
X002835Y001556D01*
X002797Y001571D01*
X002761Y001590D01*
X002726Y001612D01*
X002693Y001638D01*
X002664Y001666D01*
X002637Y001697D01*
X002613Y001731D01*
X002592Y001767D01*
X002575Y001804D01*
X002562Y001843D01*
X002552Y001883D01*
X002546Y001924D01*
X002544Y001965D01*
X002544Y011965D02*
X002546Y012006D01*
X002552Y012047D01*
X002562Y012087D01*
X002575Y012126D01*
X002592Y012163D01*
X002613Y012199D01*
X002637Y012233D01*
X002664Y012264D01*
X002693Y012292D01*
X002726Y012318D01*
X002760Y012340D01*
X002797Y012359D01*
X002835Y012374D01*
X002875Y012386D01*
X002915Y012394D01*
X002956Y012398D01*
X002998Y012398D01*
X003039Y012394D01*
X003079Y012386D01*
X003119Y012374D01*
X003157Y012359D01*
X003193Y012340D01*
X003228Y012318D01*
X003261Y012292D01*
X003290Y012264D01*
X003317Y012233D01*
X003341Y012199D01*
X003362Y012163D01*
X003379Y012126D01*
X003392Y012087D01*
X003402Y012047D01*
X003408Y012006D01*
X003410Y011965D01*
X003408Y011924D01*
X003402Y011883D01*
X003392Y011843D01*
X003379Y011804D01*
X003362Y011767D01*
X003341Y011731D01*
X003317Y011697D01*
X003290Y011666D01*
X003261Y011638D01*
X003228Y011612D01*
X003194Y011590D01*
X003157Y011571D01*
X003119Y011556D01*
X003079Y011544D01*
X003039Y011536D01*
X002998Y011532D01*
X002956Y011532D01*
X002915Y011536D01*
X002875Y011544D01*
X002835Y011556D01*
X002797Y011571D01*
X002761Y011590D01*
X002726Y011612D01*
X002693Y011638D01*
X002664Y011666D01*
X002637Y011697D01*
X002613Y011731D01*
X002592Y011767D01*
X002575Y011804D01*
X002562Y011843D01*
X002552Y011883D01*
X002546Y011924D01*
X002544Y011965D01*
X016481Y011965D02*
X016483Y012006D01*
X016489Y012047D01*
X016499Y012087D01*
X016512Y012126D01*
X016529Y012163D01*
X016550Y012199D01*
X016574Y012233D01*
X016601Y012264D01*
X016630Y012292D01*
X016663Y012318D01*
X016697Y012340D01*
X016734Y012359D01*
X016772Y012374D01*
X016812Y012386D01*
X016852Y012394D01*
X016893Y012398D01*
X016935Y012398D01*
X016976Y012394D01*
X017016Y012386D01*
X017056Y012374D01*
X017094Y012359D01*
X017130Y012340D01*
X017165Y012318D01*
X017198Y012292D01*
X017227Y012264D01*
X017254Y012233D01*
X017278Y012199D01*
X017299Y012163D01*
X017316Y012126D01*
X017329Y012087D01*
X017339Y012047D01*
X017345Y012006D01*
X017347Y011965D01*
X017345Y011924D01*
X017339Y011883D01*
X017329Y011843D01*
X017316Y011804D01*
X017299Y011767D01*
X017278Y011731D01*
X017254Y011697D01*
X017227Y011666D01*
X017198Y011638D01*
X017165Y011612D01*
X017131Y011590D01*
X017094Y011571D01*
X017056Y011556D01*
X017016Y011544D01*
X016976Y011536D01*
X016935Y011532D01*
X016893Y011532D01*
X016852Y011536D01*
X016812Y011544D01*
X016772Y011556D01*
X016734Y011571D01*
X016698Y011590D01*
X016663Y011612D01*
X016630Y011638D01*
X016601Y011666D01*
X016574Y011697D01*
X016550Y011731D01*
X016529Y011767D01*
X016512Y011804D01*
X016499Y011843D01*
X016489Y011883D01*
X016483Y011924D01*
X016481Y011965D01*
X016481Y001965D02*
X016483Y002006D01*
X016489Y002047D01*
X016499Y002087D01*
X016512Y002126D01*
X016529Y002163D01*
X016550Y002199D01*
X016574Y002233D01*
X016601Y002264D01*
X016630Y002292D01*
X016663Y002318D01*
X016697Y002340D01*
X016734Y002359D01*
X016772Y002374D01*
X016812Y002386D01*
X016852Y002394D01*
X016893Y002398D01*
X016935Y002398D01*
X016976Y002394D01*
X017016Y002386D01*
X017056Y002374D01*
X017094Y002359D01*
X017130Y002340D01*
X017165Y002318D01*
X017198Y002292D01*
X017227Y002264D01*
X017254Y002233D01*
X017278Y002199D01*
X017299Y002163D01*
X017316Y002126D01*
X017329Y002087D01*
X017339Y002047D01*
X017345Y002006D01*
X017347Y001965D01*
X017345Y001924D01*
X017339Y001883D01*
X017329Y001843D01*
X017316Y001804D01*
X017299Y001767D01*
X017278Y001731D01*
X017254Y001697D01*
X017227Y001666D01*
X017198Y001638D01*
X017165Y001612D01*
X017131Y001590D01*
X017094Y001571D01*
X017056Y001556D01*
X017016Y001544D01*
X016976Y001536D01*
X016935Y001532D01*
X016893Y001532D01*
X016852Y001536D01*
X016812Y001544D01*
X016772Y001556D01*
X016734Y001571D01*
X016698Y001590D01*
X016663Y001612D01*
X016630Y001638D01*
X016601Y001666D01*
X016574Y001697D01*
X016550Y001731D01*
X016529Y001767D01*
X016512Y001804D01*
X016499Y001843D01*
X016489Y001883D01*
X016483Y001924D01*
X016481Y001965D01*
M02*
